<svg id="svg" version="1.1" xmlns="http://www.w3.org/2000/svg" xmlns:xlink="http://www.w3.org/1999/xlink" width="400" height="342.85714285714283" viewBox="0, 0, 400,342.85714285714283"><g id="svgg"><path id="path0" d="M65.523 173.070 L 65.523 336.535 211.835 336.535 L 358.148 336.535 358.148 173.070 L 358.148 9.605 211.835 9.605 L 65.523 9.605 65.523 173.070 M340.309 95.712 L 340.309 164.322 337.822 164.334 C 322.085 164.405,276.588 164.287,249.422 164.104 L 215.311 163.875 213.830 162.352 C 213.016 161.514,212.350 160.688,212.350 160.515 C 212.350 160.342,211.290 159.153,209.994 157.873 C 208.699 156.593,207.533 155.212,207.404 154.806 C 207.275 154.399,206.876 153.973,206.518 153.859 C 206.160 153.746,205.774 153.360,205.660 153.002 C 205.547 152.644,205.161 152.258,204.803 152.144 C 204.445 152.030,204.056 151.637,203.940 151.269 C 203.823 150.901,203.583 150.600,203.407 150.600 C 203.231 150.600,203.087 150.436,203.087 150.235 C 203.087 150.034,202.238 149.020,201.201 147.983 C 200.163 146.945,199.314 145.959,199.314 145.792 C 199.314 145.625,198.233 144.392,196.913 143.053 C 195.592 141.714,194.511 140.542,194.511 140.449 C 194.511 140.188,193.816 139.401,191.852 137.439 C 190.862 136.449,190.051 135.513,190.051 135.360 C 190.051 135.207,189.434 134.465,188.679 133.710 C 187.925 132.955,187.307 132.212,187.307 132.058 C 187.307 131.904,187.006 131.683,186.638 131.566 C 186.271 131.450,185.873 131.049,185.755 130.676 C 185.636 130.303,184.470 128.914,183.164 127.589 C 181.858 126.265,180.789 125.025,180.789 124.834 C 180.789 124.644,180.611 124.598,180.393 124.733 C 180.141 124.888,180.090 124.826,180.253 124.563 C 180.514 124.140,179.277 122.813,178.621 122.813 C 178.430 122.813,178.369 122.717,178.486 122.600 C 178.603 122.483,178.057 121.788,177.272 121.056 C 176.487 120.324,175.986 119.726,176.158 119.726 C 176.330 119.726,175.821 119.120,175.028 118.380 C 174.234 117.640,173.585 116.879,173.585 116.688 C 173.585 116.497,173.292 116.248,172.933 116.134 C 172.574 116.021,172.188 115.557,172.074 115.105 C 171.961 114.653,171.560 114.185,171.183 114.065 C 170.806 113.945,170.497 113.680,170.497 113.474 C 170.497 113.269,169.880 112.514,169.125 111.796 C 168.370 111.078,167.753 110.253,167.753 109.962 C 167.753 109.672,167.521 109.434,167.238 109.434 C 166.955 109.434,166.724 109.271,166.724 109.072 C 166.724 108.872,165.952 107.969,165.009 107.065 C 164.065 106.160,163.293 105.270,163.293 105.087 C 163.293 104.905,162.907 104.419,162.436 104.009 C 161.964 103.599,161.578 103.119,161.578 102.941 C 161.578 102.764,161.308 102.528,160.978 102.417 C 160.648 102.306,159.991 101.663,159.520 100.989 C 159.048 100.314,157.697 98.755,156.518 97.524 C 155.339 96.293,154.374 95.172,154.374 95.033 C 154.374 94.894,153.370 93.761,152.144 92.517 C 150.918 91.272,149.914 90.118,149.914 89.952 C 149.914 89.786,149.490 89.249,148.971 88.757 C 148.452 88.266,147.842 87.662,147.615 87.414 C 147.388 87.167,147.002 86.778,146.757 86.552 C 146.047 85.894,145.432 85.101,145.533 84.973 C 145.584 84.909,144.584 83.819,143.310 82.552 C 142.037 81.284,140.995 80.095,140.995 79.909 C 140.995 79.723,140.069 78.665,138.937 77.557 C 137.804 76.449,136.878 75.373,136.878 75.164 C 136.878 74.956,136.734 74.786,136.558 74.786 C 136.382 74.786,136.143 74.485,136.026 74.117 C 135.909 73.749,135.521 73.355,135.163 73.242 C 134.805 73.128,134.419 72.742,134.305 72.384 C 134.192 72.026,133.833 71.649,133.509 71.546 C 133.185 71.443,132.636 70.831,132.288 70.186 C 131.941 69.542,131.333 68.929,130.938 68.826 C 130.542 68.722,130.322 68.535,130.447 68.409 C 130.573 68.283,130.018 67.540,129.212 66.757 C 128.407 65.975,127.643 65.059,127.513 64.721 C 127.377 64.367,127.109 64.212,126.879 64.354 C 126.641 64.501,126.573 64.451,126.709 64.230 C 126.835 64.027,126.087 63.010,125.047 61.970 C 124.007 60.930,123.156 59.915,123.156 59.714 C 123.156 59.513,123.012 59.348,122.836 59.348 C 122.660 59.348,122.421 59.047,122.304 58.680 C 122.187 58.312,121.799 57.918,121.441 57.804 C 121.083 57.691,120.697 57.305,120.583 56.947 C 120.470 56.589,120.076 56.200,119.708 56.084 C 119.340 55.967,119.039 55.671,119.039 55.426 C 119.039 55.180,118.036 53.941,116.810 52.672 C 115.583 51.402,114.580 50.247,114.580 50.104 C 114.580 49.961,113.619 48.875,112.444 47.689 C 111.270 46.504,110.138 45.207,109.929 44.808 C 109.720 44.409,109.369 44.121,109.149 44.168 C 108.928 44.215,108.748 44.048,108.748 43.796 C 108.748 43.544,108.285 42.925,107.719 42.421 C 107.153 41.917,106.690 41.361,106.690 41.187 C 106.690 41.012,106.381 40.772,106.003 40.652 C 105.626 40.532,105.317 40.203,105.317 39.922 C 105.317 39.640,104.314 38.396,103.087 37.157 C 101.861 35.919,100.858 34.766,100.858 34.595 C 100.858 34.424,99.950 33.401,98.840 32.322 C 97.730 31.243,96.724 30.036,96.603 29.640 C 96.483 29.245,96.002 28.746,95.534 28.533 C 92.254 27.039,86.924 27.101,217.496 27.101 L 340.309 27.101 340.309 95.712 M84.245 43.741 C 84.601 44.403,85.158 45.028,85.482 45.131 C 85.806 45.234,86.164 45.611,86.278 45.969 C 86.392 46.327,86.777 46.713,87.136 46.827 C 87.494 46.940,87.883 47.339,88.002 47.712 C 88.120 48.085,89.286 49.474,90.592 50.798 C 91.899 52.123,92.967 53.358,92.967 53.544 C 92.967 53.729,93.199 53.970,93.482 54.078 C 93.765 54.187,93.997 54.414,93.997 54.584 C 93.997 54.753,94.768 55.648,95.712 56.571 C 96.655 57.495,97.427 58.363,97.427 58.501 C 97.427 58.639,98.431 59.754,99.657 60.981 C 100.883 62.207,101.887 63.333,101.887 63.483 C 101.887 63.633,102.813 64.706,103.945 65.866 C 105.077 67.027,106.003 68.094,106.003 68.238 C 106.003 68.382,107.045 69.580,108.319 70.900 C 110.790 73.461,112.178 75.124,112.178 75.523 C 112.178 75.658,112.479 75.864,112.847 75.981 C 113.215 76.097,113.608 76.486,113.722 76.844 C 113.836 77.202,114.230 77.590,114.597 77.707 C 114.965 77.824,115.266 78.159,115.266 78.451 C 115.266 78.744,116.269 79.967,117.494 81.168 C 118.720 82.370,119.762 83.523,119.810 83.731 C 119.858 83.939,120.764 84.983,121.825 86.051 C 122.885 87.119,123.857 88.333,123.986 88.747 C 124.115 89.162,124.513 89.595,124.871 89.708 C 125.229 89.822,125.615 90.208,125.729 90.566 C 125.843 90.924,126.236 91.313,126.604 91.429 C 126.972 91.546,127.273 91.780,127.273 91.950 C 127.273 92.119,127.731 92.726,128.290 93.299 C 128.850 93.871,129.219 94.340,129.110 94.340 C 129.001 94.340,129.779 95.192,130.837 96.234 C 131.896 97.275,132.762 98.279,132.762 98.464 C 132.762 98.941,135.408 101.528,135.649 101.286 C 135.759 101.176,135.849 101.259,135.849 101.471 C 135.849 101.683,136.235 102.242,136.707 102.713 C 137.178 103.185,137.564 103.732,137.564 103.930 C 137.564 104.127,137.728 104.288,137.928 104.288 C 138.127 104.288,138.202 104.431,138.094 104.607 C 137.986 104.782,138.201 105.021,138.571 105.139 C 138.941 105.256,139.337 105.645,139.451 106.003 C 139.565 106.361,139.951 106.747,140.309 106.861 C 140.667 106.975,141.055 107.369,141.172 107.736 C 141.289 108.104,141.528 108.405,141.704 108.405 C 141.880 108.405,142.024 108.575,142.024 108.784 C 142.024 108.992,142.950 110.069,144.082 111.176 C 145.214 112.284,146.141 113.349,146.141 113.543 C 146.141 113.737,147.144 114.870,148.370 116.061 C 149.597 117.252,150.600 118.409,150.600 118.633 C 150.600 118.856,150.744 119.039,150.920 119.039 C 151.096 119.039,151.336 119.340,151.452 119.708 C 151.569 120.076,151.958 120.470,152.316 120.583 C 152.674 120.697,153.060 121.083,153.173 121.441 C 153.287 121.799,153.673 122.185,154.031 122.298 C 154.389 122.412,154.788 122.838,154.917 123.245 C 155.046 123.652,156.211 125.032,157.507 126.312 C 158.803 127.593,159.863 128.785,159.863 128.962 C 159.863 129.139,160.750 130.193,161.835 131.303 C 163.956 133.474,165.352 135.162,165.352 135.557 C 165.352 135.692,165.652 135.898,166.020 136.015 C 166.388 136.132,166.782 136.520,166.895 136.878 C 167.009 137.236,167.403 137.625,167.771 137.741 C 168.138 137.858,168.439 138.193,168.439 138.486 C 168.439 138.778,169.443 140.002,170.669 141.204 C 171.895 142.407,172.899 143.541,172.899 143.725 C 172.899 143.908,173.987 145.147,175.317 146.477 C 176.647 147.807,177.649 149.036,177.542 149.209 C 177.436 149.381,177.652 149.618,178.022 149.736 C 178.393 149.853,178.789 150.242,178.902 150.600 C 179.016 150.958,179.402 151.344,179.760 151.458 C 180.118 151.572,180.504 151.958,180.617 152.316 C 180.731 152.674,181.125 153.062,181.493 153.179 C 181.860 153.296,182.161 153.630,182.161 153.923 C 182.161 154.216,183.203 155.477,184.477 156.726 C 185.750 157.974,186.754 159.037,186.707 159.086 C 186.430 159.378,186.698 159.863,187.136 159.863 C 187.419 159.863,187.650 160.028,187.650 160.230 C 187.650 160.738,188.550 161.593,188.810 161.333 C 188.927 161.216,189.022 161.294,189.022 161.505 C 189.022 161.717,189.408 162.276,189.880 162.748 C 190.352 163.219,190.738 163.689,190.738 163.792 C 190.738 164.149,165.401 163.994,165.180 163.636 C 164.875 163.142,163.298 163.213,163.266 163.722 C 163.245 164.065,163.205 164.065,163.066 163.722 C 162.971 163.486,162.665 163.293,162.387 163.293 C 162.073 163.293,161.979 163.456,162.138 163.722 C 162.341 164.060,162.287 164.063,161.883 163.736 C 161.355 163.310,161.801 163.313,104.545 163.299 L 83.019 163.293 83.019 102.916 C 83.019 69.708,83.149 42.539,83.308 42.539 C 83.467 42.539,83.888 43.080,84.245 43.741 M132.347 181.478 C 154.532 181.488,166.679 181.613,166.546 181.828 C 166.245 182.316,167.536 182.235,168.078 181.732 C 168.404 181.429,168.472 181.424,168.309 181.715 C 168.130 182.032,172.500 182.129,187.430 182.139 C 207.678 182.153,207.733 182.156,208.081 183.250 C 208.200 183.625,209.286 184.930,210.495 186.151 C 211.704 187.372,212.693 188.512,212.693 188.685 C 212.693 188.857,213.774 190.079,215.094 191.400 C 216.415 192.721,217.496 193.932,217.496 194.091 C 217.496 194.507,220.862 197.942,221.270 197.942 C 221.458 197.942,221.612 198.162,221.612 198.432 C 221.612 198.701,222.307 199.647,223.156 200.533 C 224.005 201.419,224.700 202.269,224.700 202.421 C 224.700 202.574,225.009 202.796,225.386 202.916 C 225.769 203.038,226.072 203.435,226.072 203.817 C 226.072 204.193,226.226 204.405,226.415 204.288 C 226.604 204.172,226.758 204.233,226.758 204.425 C 226.758 204.616,227.607 205.615,228.645 206.645 C 229.683 207.674,230.532 208.685,230.532 208.890 C 230.532 209.368,231.791 210.635,232.267 210.635 C 232.467 210.635,232.542 210.778,232.434 210.953 C 232.326 211.128,232.550 211.371,232.933 211.492 C 233.316 211.614,233.561 211.823,233.478 211.957 C 233.395 212.092,233.779 212.561,234.331 213.000 C 234.883 213.440,235.334 213.979,235.334 214.199 C 235.334 214.419,235.605 214.854,235.935 215.165 C 236.265 215.477,236.716 215.936,236.938 216.185 C 237.160 216.434,237.893 217.144,238.567 217.762 C 239.242 218.380,239.794 219.037,239.794 219.221 C 239.794 219.406,240.549 220.296,241.471 221.199 C 242.393 222.102,243.473 223.375,243.871 224.028 C 244.269 224.680,244.595 225.075,244.596 224.905 C 244.596 224.734,244.906 224.951,245.283 225.386 C 245.660 225.821,245.969 226.297,245.969 226.444 C 245.969 226.592,246.270 226.807,246.638 226.924 C 247.005 227.041,247.395 227.415,247.503 227.756 C 247.611 228.097,248.043 228.541,248.464 228.744 C 248.884 228.947,249.022 229.124,248.770 229.136 C 248.518 229.149,249.135 230.008,250.142 231.045 C 252.597 233.573,252.829 233.861,252.835 234.377 C 252.839 234.691,252.937 234.671,253.173 234.305 C 253.454 233.870,253.507 233.888,253.511 234.419 C 253.514 234.764,254.443 235.973,255.575 237.105 C 256.707 238.237,257.633 239.283,257.633 239.431 C 257.633 239.578,258.173 240.271,258.834 240.971 C 259.494 241.671,260.034 242.150,260.034 242.035 C 260.034 241.920,260.250 242.024,260.513 242.268 C 260.776 242.511,260.921 242.826,260.836 242.967 C 260.750 243.109,260.819 243.225,260.989 243.225 C 261.159 243.225,261.589 243.765,261.945 244.425 C 262.301 245.086,262.693 245.626,262.816 245.626 C 263.146 245.626,265.866 248.401,265.866 248.737 C 265.866 248.894,266.947 250.119,268.268 251.458 C 269.588 252.797,270.669 254.015,270.669 254.165 C 270.669 254.315,271.672 255.460,272.899 256.711 C 274.125 257.962,275.129 259.085,275.129 259.207 C 275.129 259.329,275.746 260.046,276.501 260.801 C 277.256 261.556,277.873 262.299,277.873 262.453 C 277.873 262.607,278.174 262.828,278.542 262.945 C 278.909 263.061,279.302 263.445,279.413 263.797 C 279.525 264.149,280.536 265.383,281.661 266.539 C 282.785 267.695,283.705 268.769,283.705 268.926 C 283.705 269.083,284.708 270.224,285.935 271.463 C 287.161 272.701,288.165 273.808,288.165 273.923 C 288.165 274.037,288.551 274.517,289.022 274.988 C 289.494 275.460,289.880 275.983,289.880 276.150 C 289.880 276.318,290.181 276.550,290.548 276.667 C 290.916 276.784,291.310 277.172,291.424 277.530 C 291.537 277.888,291.931 278.277,292.299 278.393 C 292.667 278.510,292.967 278.845,292.967 279.137 C 292.967 279.430,293.971 280.653,295.197 281.856 C 296.424 283.058,297.427 284.265,297.427 284.537 C 297.427 284.809,297.747 285.133,298.139 285.257 C 298.531 285.381,298.772 285.562,298.676 285.658 C 298.437 285.897,301.509 288.849,302.004 288.856 C 302.261 288.859,302.241 288.963,301.947 289.149 C 301.578 289.383,301.592 289.527,302.021 289.916 C 302.965 290.772,303.423 291.211,303.843 291.665 C 304.070 291.909,304.456 292.288,304.701 292.507 C 304.945 292.725,305.455 293.309,305.832 293.804 C 306.209 294.299,307.550 295.779,308.812 297.094 C 310.074 298.410,310.962 299.485,310.785 299.485 C 310.608 299.485,311.042 300.078,311.750 300.803 C 312.457 301.528,313.119 302.079,313.221 302.028 C 313.323 301.977,313.709 302.387,314.079 302.939 C 314.449 303.491,314.867 303.944,315.009 303.944 C 315.150 303.945,315.266 304.151,315.266 304.403 C 315.266 304.655,315.690 305.263,316.209 305.754 C 316.728 306.245,317.338 306.849,317.565 307.097 C 317.792 307.345,318.178 307.733,318.423 307.960 C 319.114 308.600,319.726 309.382,319.726 309.627 C 319.726 309.749,320.652 310.755,321.784 311.862 C 322.916 312.970,323.842 313.964,323.842 314.071 C 323.842 314.355,324.511 315.125,326.158 316.737 C 326.960 317.522,327.616 318.284,327.616 318.431 C 327.616 318.577,272.581 318.696,205.317 318.696 L 83.019 318.696 83.019 250.100 L 83.019 181.503 85.849 181.403 C 87.406 181.348,90.763 181.339,93.310 181.382 C 95.858 181.426,113.424 181.468,132.347 181.478 M307.290 182.499 L 340.309 182.504 340.309 243.568 C 340.309 277.153,340.221 304.631,340.114 304.631 C 339.860 304.631,337.924 302.546,337.050 301.329 C 336.672 300.804,335.399 299.384,334.220 298.173 C 333.040 296.963,332.075 295.847,332.075 295.695 C 332.075 295.543,331.072 294.410,329.846 293.177 C 328.619 291.945,327.616 290.801,327.616 290.636 C 327.616 290.471,327.191 289.935,326.672 289.444 C 326.154 288.952,325.543 288.348,325.317 288.100 C 325.090 287.853,324.704 287.465,324.459 287.238 C 323.779 286.608,323.156 285.816,323.156 285.582 C 323.156 285.466,322.153 284.373,320.926 283.152 C 319.700 281.932,318.696 280.793,318.696 280.621 C 318.696 280.212,313.824 275.278,313.515 275.374 C 313.385 275.415,313.353 275.160,313.446 274.807 C 313.559 274.373,313.387 274.094,312.913 273.943 C 312.528 273.821,312.121 273.428,312.007 273.070 C 311.893 272.712,311.507 272.326,311.149 272.213 C 310.791 272.099,310.393 271.674,310.264 271.268 C 309.989 270.400,309.292 269.640,308.772 269.640 C 308.570 269.640,308.405 269.478,308.405 269.280 C 308.405 269.083,307.633 268.149,306.690 267.206 C 305.746 266.262,304.974 265.378,304.974 265.240 C 304.974 264.801,302.971 262.779,302.535 262.779 C 302.304 262.779,302.209 262.685,302.323 262.571 C 302.437 262.457,302.154 262.015,301.694 261.588 C 301.234 261.162,300.858 260.638,300.858 260.424 C 300.858 260.210,300.714 260.034,300.538 260.034 C 300.362 260.034,300.122 259.733,300.006 259.366 C 299.889 258.998,299.500 258.604,299.142 258.491 C 298.784 258.377,298.398 257.991,298.285 257.633 C 298.171 257.275,297.777 256.886,297.410 256.770 C 297.042 256.653,296.741 256.327,296.741 256.046 C 296.741 255.746,296.577 255.636,296.345 255.779 C 296.099 255.931,296.042 255.873,296.195 255.626 C 296.342 255.388,295.604 254.399,294.361 253.167 C 293.217 252.034,292.276 250.993,292.270 250.854 C 292.249 250.381,290.973 249.057,290.540 249.057 C 290.303 249.057,290.202 248.964,290.315 248.850 C 290.429 248.737,289.914 248.066,289.172 247.360 C 288.429 246.653,287.822 245.925,287.822 245.741 C 287.822 245.557,287.436 245.071,286.964 244.661 C 286.492 244.251,286.106 243.770,286.106 243.593 C 286.106 243.416,285.805 243.175,285.438 243.059 C 285.070 242.942,284.676 242.554,284.563 242.196 C 284.449 241.837,284.055 241.449,283.687 241.332 C 283.320 241.216,283.019 240.881,283.019 240.588 C 283.019 240.295,282.015 239.072,280.789 237.870 C 279.563 236.667,278.559 235.529,278.559 235.341 C 278.559 235.153,277.653 234.102,276.545 233.004 C 275.438 231.907,274.426 230.678,274.298 230.273 C 274.169 229.869,273.771 229.445,273.413 229.331 C 273.055 229.217,272.669 228.831,272.556 228.473 C 272.442 228.115,272.056 227.729,271.698 227.616 C 271.340 227.502,270.952 227.108,270.835 226.741 C 270.718 226.373,270.479 226.072,270.303 226.072 C 270.127 226.072,269.983 225.920,269.983 225.734 C 269.983 225.548,268.979 224.382,267.753 223.143 C 266.527 221.905,265.523 220.752,265.523 220.582 C 265.523 220.412,264.464 219.220,263.170 217.934 C 261.875 216.647,260.710 215.258,260.579 214.847 C 260.449 214.436,260.049 214.007,259.691 213.894 C 259.333 213.780,258.947 213.394,258.834 213.036 C 258.720 212.678,258.334 212.292,257.976 212.178 C 257.618 212.065,257.228 211.667,257.110 211.293 C 256.991 210.920,255.826 209.531,254.519 208.207 C 253.213 206.882,252.144 205.652,252.144 205.472 C 252.144 205.293,251.964 205.146,251.744 205.146 C 251.524 205.146,251.435 205.054,251.548 204.942 C 251.660 204.829,250.837 203.842,249.718 202.748 C 248.600 201.653,247.684 200.587,247.684 200.379 C 247.684 200.170,247.540 200.000,247.364 200.000 C 247.188 200.000,246.949 199.699,246.832 199.331 C 246.716 198.964,246.327 198.570,245.969 198.456 C 245.611 198.343,245.225 197.957,245.111 197.599 C 244.998 197.241,244.604 196.852,244.237 196.736 C 243.870 196.619,243.475 196.148,243.360 195.689 C 243.245 195.230,242.910 194.854,242.616 194.854 C 242.322 194.854,242.179 194.756,242.299 194.636 C 242.419 194.517,241.612 193.533,240.507 192.452 C 239.401 191.370,238.392 190.156,238.265 189.754 C 238.137 189.351,237.786 189.022,237.484 189.022 C 237.182 189.022,237.023 188.934,237.131 188.827 C 237.239 188.719,236.685 187.977,235.902 187.176 C 234.281 185.522,232.933 183.844,232.933 183.482 C 232.933 183.347,232.624 183.139,232.247 183.019 C 229.581 182.173,232.424 182.071,252.916 182.278 C 264.661 182.396,289.130 182.496,307.290 182.499 " stroke="none" fill="#9c9c9c" fill-rule="evenodd"></path><path id="path1" d="" stroke="none" fill="#a09c9c" fill-rule="evenodd"></path><path id="path2" d="" stroke="none" fill="#a09c9c" fill-rule="evenodd"></path><path id="path3" d="" stroke="none" fill="#a09c9c" fill-rule="evenodd"></path><path id="path4" d="" stroke="none" fill="#a09c9c" fill-rule="evenodd"></path></g></svg>